<svg xmlns="http://www.w3.org/2000/svg" width="94.525" height="31.515" viewBox="0 0 94.525 31.515">
  <path id="Path_224" data-name="Path 224" d="M28.5,17.63l3.194,8.688a1.737,1.737,0,0,0,1.816,1.12h4.9q2.134,0,2.134,1.5a1.921,1.921,0,0,1-.757,1.612,3.376,3.376,0,0,1-2.1.583H32.663a5.272,5.272,0,0,1-2.815-.552,4.8,4.8,0,0,1-1.483-2.308L24.353,17.434l-3.133,7.7q-.908,2.271-2.588,2.271a1.716,1.716,0,0,1-1.2-.454,1.407,1.407,0,0,1-.5-1.075,3.19,3.19,0,0,1,.257-1.15l.182-.439L21.31,14.6a10.1,10.1,0,0,0,.893-3.058,1.619,1.619,0,0,0-.643-1.279,2.277,2.277,0,0,0-1.506-.537,3.757,3.757,0,0,0-2.778,1.294,4.1,4.1,0,0,0-1.234,2.9,2.475,2.475,0,0,0,1.892,2.437,1.467,1.467,0,0,1,1.15,1.423,1.749,1.749,0,0,1-.658,1.4,2.468,2.468,0,0,1-1.642.552,4.1,4.1,0,0,1-3.239-1.6A5.763,5.763,0,0,1,12.2,14.3a7.931,7.931,0,0,1,2.475-5.79,7.948,7.948,0,0,1,5.8-2.475,6.081,6.081,0,0,1,4.147,1.453,4.623,4.623,0,0,1,1.665,3.633A9.384,9.384,0,0,1,25.5,14.6l-.53,1.287L32.92,7.58a3.518,3.518,0,0,1,2.346-1.347,1.657,1.657,0,0,1,1.211.477,1.618,1.618,0,0,1,.484,1.2,3.561,3.561,0,0,1-1.226,2.18Zm8.542,1.62h2.77q1.438,0,1.438,1.287,0,1.3-1.438,1.3H36.755a1.5,1.5,0,0,1-1.037-.356,1.307,1.307,0,0,1-.008-1.877,1.5,1.5,0,0,1,1.044-.356Zm18.608-2.588,1.393,1.756.8.969a9.52,9.52,0,0,1,2.331,6.085,8.029,8.029,0,0,1-2.059,5.464,9.318,9.318,0,0,1-7.372,3.224,7.992,7.992,0,0,1-5.782-2.172,7.385,7.385,0,0,1-2.255-5.563,8.48,8.48,0,0,1,3.512-6.917,5.73,5.73,0,0,1,3.436-1.468,1.9,1.9,0,0,1,1.332.469,1.564,1.564,0,0,1,.515,1.211,2.06,2.06,0,0,1-1.181,1.726l-1.211.742A5.282,5.282,0,0,0,47.371,24a4.466,4.466,0,0,0-.7,2.3,3.952,3.952,0,0,0,1.219,2.974,4.281,4.281,0,0,0,3.1,1.173,4.893,4.893,0,0,0,3.6-1.552,5.037,5.037,0,0,0,1.529-3.656,4.807,4.807,0,0,0-.621-2.422,23.21,23.21,0,0,0-2.679-3.375,14.029,14.029,0,0,1-2.059-2.785H46.675q-2.089,0-2.089-1.438a1.918,1.918,0,0,1,.734-1.612,3.311,3.311,0,0,1,2.066-.568h2.588a7.065,7.065,0,0,1,2.74-4.957,9.031,9.031,0,0,1,5.843-1.96,6.11,6.11,0,0,1,4.17,1.408,4.617,4.617,0,0,1,1.612,3.648,5.075,5.075,0,0,1-2.558,4.571,8.993,8.993,0,0,1-4.617.908Zm-1.816-3.618h3.633q3.073,0,3.073-1.786a1.3,1.3,0,0,0-.628-1.12,2.945,2.945,0,0,0-1.673-.424,4.811,4.811,0,0,0-2.974,1.014A3.189,3.189,0,0,0,53.834,13.044Zm17.382,3.027a5.859,5.859,0,0,1,2.619-.863,3.5,3.5,0,0,1,2.384.81,2.617,2.617,0,0,1,.931,2.066,4.408,4.408,0,0,1-.363,1.65L75.2,23.7h1.741q1.907,0,1.907,1.347a1.706,1.706,0,0,1-.674,1.438A3.043,3.043,0,0,1,76.287,27H73.245a2.446,2.446,0,0,1-1.627-.552,1.7,1.7,0,0,1-.658-1.355,3.864,3.864,0,0,1,.348-1.393L72.7,20.279a2.988,2.988,0,0,0,.257-.984q0-.863-1.15-.863-1.544,0-2.6,2.634l-1.7,4.163q-.8,1.983-2.376,1.983a1.532,1.532,0,0,1-1.06-.394,1.235,1.235,0,0,1-.439-.954,2.791,2.791,0,0,1,.227-1l.167-.409L70.611,8.215q.863-2.089,2.361-2.089a1.511,1.511,0,0,1,1.067.416,1.326,1.326,0,0,1,.447,1.007,4.229,4.229,0,0,1-.394,1.438Zm16.08-.863a4.932,4.932,0,0,1,3.61,1.393,4.758,4.758,0,0,1,1.415,3.542,7.573,7.573,0,0,1-.742,3.217,7,7,0,0,1-1.922,2.551,4.652,4.652,0,0,1-1.627.855A9.182,9.182,0,0,1,85.677,27a6.441,6.441,0,0,1-3.33-.59,4.671,4.671,0,0,1-2.028-4.117,6.856,6.856,0,0,1,2.074-4.98A6.658,6.658,0,0,1,87.3,15.208Zm-.363,3.224a2.652,2.652,0,0,0-2.043,1.1,3.714,3.714,0,0,0-.923,2.437q0,1.756,1.968,1.756a2.224,2.224,0,0,0,1.771-.711,3.91,3.91,0,0,0,1.029-2.664,1.947,1.947,0,0,0-.5-1.393A1.707,1.707,0,0,0,86.934,18.433Zm10.344,7.387-3.951,9.718q-.817,2.013-2.392,2.013a1.469,1.469,0,0,1-1.037-.4,1.267,1.267,0,0,1-.431-.961,4.36,4.36,0,0,1,.378-1.423l7.3-17.982a1.967,1.967,0,0,1,1.938-1.362,1.709,1.709,0,0,1,1.514.908,3.427,3.427,0,0,1,2.588-1.12,3.143,3.143,0,0,1,2.566,1.2,4.878,4.878,0,0,1,.976,3.171,8.272,8.272,0,0,1-2.316,6.07,4.207,4.207,0,0,1-1.559,1.06,6.892,6.892,0,0,1-2.24.288,7.144,7.144,0,0,1-2.127-.212A2.986,2.986,0,0,1,97.277,25.819Zm1.241-3.088a2.292,2.292,0,0,0,.719.863,2.254,2.254,0,0,0,1.082.2,1.987,1.987,0,0,0,1.68-.8,5.463,5.463,0,0,0,1.226-3.33q0-1.468-1.393-1.468a2.3,2.3,0,0,0-2.195,1.771q-.076.2-.121.333Z" transform="translate(-12.198 -6.036)" fill="#302ca2"/>
</svg>
